<svg width="61" height="17" fill="none" xmlns="http://www.w3.org/2000/svg" id="svg1552719357_603" style="transform: scaleX(-1) rotate(0deg); opacity: 1;"><path d="M58.913 16.996a1 1 0 0 0 1.083-.91l.78-8.966a1 1 0 1 0-1.993-.173l-.693 7.97-7.97-.693a1 1 0 1 0-.173 1.993l8.966.78Zm-57.115-.394c4.976-6.596 13.995-12.691 24.303-14.08 10.241-1.38 21.845 1.873 32.133 14.121l1.532-1.286C49.054 2.605 36.78-.934 25.834.54 14.954 2.006 5.472 8.41.202 15.398l1.596 1.204Z" fill="url(#svg1552719357_603_a)"/><defs><linearGradient id="svg1552719357_603_a" x1="59" y1="16" x2="1" y2="16" gradientUnits="userSpaceOnUse"><stop stop-color="hsl(228deg 2% 53%)"/><stop offset="1" stop-color="hsl(228deg 2% 53%)" stop-opacity="0"/></linearGradient></defs></svg>